/* XPM */
static char *_525247221789[] = {
/* columns rows colors chars-per-pixel */
"16 16 56 1 ",
"  c gray2",
". c #060606",
"X c gray3",
"o c #090909",
"O c gray9",
"+ c #1D1D1D",
"@ c #1E1E1E",
"# c gray12",
"$ c #202020",
"% c gray13",
"& c #222222",
"* c #232323",
"= c gray14",
"- c #252525",
"; c #282828",
": c gray16",
"> c #2A2A2A",
", c gray17",
"< c #2D2D2D",
"1 c gray18",
"2 c gray19",
"3 c #313131",
"4 c #323232",
"5 c gray20",
"6 c #343434",
"7 c gray21",
"8 c #373737",
"9 c gray22",
"0 c gray23",
"q c #3C3C3C",
"w c gray24",
"e c #3E3E3E",
"r c #3F3F3F",
"t c gray25",
"y c gray26",
"u c #434343",
"i c #464646",
"p c gray28",
"a c #484848",
"s c gray29",
"d c #4B4B4B",
"f c #4C4C4C",
"g c gray30",
"h c #4E4E4E",
"j c gray31",
"k c #515151",
"l c #555555",
"z c gray34",
"x c #5D5D5D",
"c c gray37",
"v c gray38",
"b c gray40",
"n c #676767",
"m c #7C7C7C",
"M c gray49",
"N c None",
/* pixels */
"NNNNNNNNNNNNNNNN",
"NNNNNNNNNNNNNNNN",
"NNNNNN6226NNNNNN",
"NNNNkMq##qMkNNNN",
"NNNNq0>..<qt#NNN",
"NNNiOX#00%XOiNNN",
"NN-%X<iaat<X%>NN",
"NNbf-<lxvl<-avNN",
"NNvf%<zxxl<-anNN",
"NN>%X<tfft2X%-NN",
"NNNaOX%60%.OaNNN",
"NNNNtt>. >qt#NNN",
"NNNNfMt%%tMfNNNN",
"NNNNNN62<>NNNNNN",
"NNNNNNNNNNNNNNNN",
"NNNNNNNNNNNNNNNN"
};
