/* XPM */
static char *_525247230426[] = {
/* columns rows colors chars-per-pixel */
"32 32 138 2 ",
"   c black",
".  c #020202",
"X  c gray1",
"o  c #060606",
"O  c gray3",
"+  c #090909",
"@  c gray4",
"#  c #0B0B0B",
"$  c #0C0C0C",
"%  c #0E0E0E",
"&  c gray6",
"*  c #101010",
"=  c #111111",
"-  c gray7",
";  c #131313",
":  c gray8",
">  c #151515",
",  c #161616",
"<  c gray9",
"1  c #181818",
"2  c #191919",
"3  c gray10",
"4  c #1B1B1B",
"5  c gray11",
"6  c #1D1D1D",
"7  c #1E1E1E",
"8  c gray12",
"9  c #202020",
"0  c gray13",
"q  c #222222",
"w  c #232323",
"e  c gray14",
"r  c #252525",
"t  c gray15",
"y  c #272727",
"u  c gray16",
"i  c #2A2A2A",
"p  c gray17",
"a  c #2C2C2C",
"s  c #2D2D2D",
"d  c gray18",
"f  c #2F2F2F",
"g  c gray19",
"h  c #313131",
"j  c #323232",
"k  c gray20",
"l  c #343434",
"z  c #353535",
"x  c gray21",
"c  c #373737",
"v  c gray22",
"b  c #393939",
"n  c #3A3A3A",
"m  c gray23",
"M  c #3C3C3C",
"N  c gray24",
"B  c #3E3E3E",
"V  c #3F3F3F",
"C  c gray25",
"Z  c #414141",
"A  c gray26",
"S  c #434343",
"D  c #444444",
"F  c gray27",
"G  c #464646",
"H  c gray28",
"J  c #484848",
"K  c #494949",
"L  c gray29",
"P  c #4B4B4B",
"I  c #4C4C4C",
"U  c gray30",
"Y  c #4E4E4E",
"T  c gray31",
"R  c #505050",
"E  c #515151",
"W  c gray32",
"Q  c #535353",
"!  c gray33",
"~  c #555555",
"^  c #565656",
"/  c gray34",
"(  c #585858",
")  c gray35",
"_  c #5A5A5A",
"`  c #5B5B5B",
"'  c gray36",
"]  c #5D5D5D",
"[  c gray37",
"{  c #5F5F5F",
"}  c #606060",
"|  c gray38",
" . c gray39",
".. c #646464",
"X. c #656565",
"o. c gray40",
"O. c #676767",
"+. c #686868",
"@. c DimGray",
"#. c #6A6A6A",
"$. c gray42",
"%. c #6C6C6C",
"&. c #6D6D6D",
"*. c gray43",
"=. c #6F6F6F",
"-. c gray44",
";. c #747474",
":. c gray47",
">. c #797979",
",. c gray48",
"<. c #7E7E7E",
"1. c gray50",
"2. c #808080",
"3. c #868686",
"4. c gray53",
"5. c #888888",
"6. c #898989",
"7. c gray54",
"8. c gray55",
"9. c #8D8D8D",
"0. c #8E8E8E",
"q. c gray56",
"w. c #909090",
"e. c gray57",
"r. c #959595",
"t. c gray59",
"y. c #979797",
"u. c #9B9B9B",
"i. c gray61",
"p. c gray62",
"a. c gray63",
"s. c #A2A2A2",
"d. c gray64",
"f. c #A4A4A4",
"g. c #A5A5A5",
"h. c #AAAAAA",
"j. c #B2B2B2",
"k. c None",
/* pixels */
"k.k.k.k.k.k.k.k.k.k.k.k.k.k.k.k.k.k.k.k.k.k.k.k.k.k.k.k.k.k.k.k.",
"k.k.k.k.k.k.k.k.k.k.k.k.k.k.k.k.k.k.k.k.k.k.k.k.k.k.k.k.k.k.k.k.",
"k.k.k.k.k.k.k.k.k.k.k.k.k.k.k.k.k.k.k.k.k.k.k.k.k.k.k.k.k.k.k.k.",
"k.k.k.k.k.k.k.k.k.k.k.k.k.k.k.k.k.k.k.k.k.k.k.k.k.k.k.k.k.k.k.k.",
"k.k.k.k.k.k.k.k.k.k.k.k.k.k.k.' ' k.k.k.k.k.k.k.k.k.k.k.k.k.k.k.",
"k.k.k.k.k.k.k.k.k.k.k.$.e.a   I I o D -. .k.k.k.k.k.k.k.k.k.k.k.",
"k.k.k.k.k.k.k.k.k.I p.u.I C B n n B n D f.u.C k.k.k.k.k.k.k.k.k.",
"k.k.k.k.k.k.k.k.' e.;.k I a o - - o u I B O.j.%.k.k.k.k.k.k.k.k.",
"k.k.k.k.k.k.k.k. .k L $.n     : 2     c O.L B I k.k.k.k.k.k.k.k.",
"k.k.k.k.k.<.k.  u B 2 a ' t   - :   9  .a 2 B c   k.<.k.k.k.k.k.",
"k.k.k.k.k.:. .O.u     - u u ' a a ` u u -     u O.O.:.k.k.k.k.k.",
"k.k.k.k.k.k.7 I t :   2 u   c D D c   u 7   - t L 7 k.k.k.k.k.k.",
"k.k.k.k.k.o 7 9 + u t k ^ : 2 7.8.2 : ` k t u + 9 2 9 k.k.k.k.k.",
"k.k.k.k.n O.B 9     2 u ` ' ^ c c R ` ` u 2     9 B -.n k.k.k.k.",
"k.k.k.k.n f.k t   : ` L 3. .D %.%.D ' 7.L ` 2   t n 2.C k.k.k.k.",
"k.k.k.k.n y.n ' R n + & k I %.' ' %.I k & + n I ' D f.n k.k.k.k.",
"k.k.k.k.n s.L ` D n - : c L %.'  .%.I n : - B D ` n y.B k.k.k.k.",
"k.k.k.k.C 2.c 9   & ` L 7.$.C %.%.C O.7.D ` -   9 k f.n k.k.k.k.",
"k.k.k.k.n %.B 7     2 a R ^ R n c R ^ R a 2     7 B $.n k.k.k.k.",
"k.k.k.k.k.9 2 9 & a 9 a ` - 2 8.8.2 - ` k 9 a + 7 7 o k.k.k.k.k.",
"k.k.k.k.k.k.9 ^ 9 -   2 t   n C B n   t 2   - t ^ 9 k.k.k.k.k.k.",
"k.k.k.k.k.7.O.' a     - k a ^ u u ^ k a -     a ' O.7.k.k.k.k.k.",
"k.k.k.k.k.%.k.  k B 9 c ' 7   : :   7 ' c 9 B a   k.%.k.k.k.k.k.",
"k.k.k.k.k.k.k.k.I D C O.n     : 2     n O.L a $.9 k.k.k.k.k.k.k.",
"k.k.k.k.k.k.k.k.O.j.$.B L k + & - + k D a :.s.` k.k.k.k.k.k.k.k.",
"k.k.k.k.k.k.k.k.k.c e.h.C c B B B B n ` f.y.B k.k.k.k.k.k.k.k.k.",
"k.k.k.k.k.k.k.k.k.k.k.` -.I   L L   7 <.' k.k.k.k.k.k.k.k.k.k.k.",
"k.k.k.k.k.k.k.k.k.k.k.k.k.k.k.O.O.k.k.k.k.k.k.k.k.k.k.k.k.k.k.k.",
"k.k.k.k.k.k.k.k.k.k.k.k.k.k.k.k.k.k.k.k.k.k.k.k.k.k.k.k.k.k.k.k.",
"k.k.k.k.k.k.k.k.k.k.k.k.k.k.k.k.k.k.k.k.k.k.k.k.k.k.k.k.k.k.k.k.",
"k.k.k.k.k.k.k.k.k.k.k.k.k.k.k.k.k.k.k.k.k.k.k.k.k.k.k.k.k.k.k.k.",
"k.k.k.k.k.k.k.k.k.k.k.k.k.k.k.k.k.k.k.k.k.k.k.k.k.k.k.k.k.k.k.k."
};
