/* XPM */
static char *_525247236016[] = {
/* columns rows colors chars-per-pixel */
"64 64 228 2 ",
"   c black",
".  c #010101",
"X  c #020202",
"o  c gray1",
"O  c #040404",
"+  c gray2",
"@  c #060606",
"#  c #070707",
"$  c gray3",
"%  c #090909",
"&  c gray4",
"*  c #0B0B0B",
"=  c #0C0C0C",
"-  c gray5",
";  c #0E0E0E",
":  c gray6",
">  c #101010",
",  c #111111",
"<  c gray7",
"1  c #131313",
"2  c gray8",
"3  c #151515",
"4  c #161616",
"5  c gray9",
"6  c #181818",
"7  c #191919",
"8  c gray10",
"9  c #1B1B1B",
"0  c gray11",
"q  c #1D1D1D",
"w  c #1E1E1E",
"e  c gray12",
"r  c #202020",
"t  c gray13",
"y  c #222222",
"u  c #232323",
"i  c gray14",
"p  c #252525",
"a  c gray15",
"s  c #272727",
"d  c #282828",
"f  c gray16",
"g  c #2A2A2A",
"h  c gray17",
"j  c #2C2C2C",
"k  c #2D2D2D",
"l  c gray18",
"z  c #2F2F2F",
"x  c gray19",
"c  c #313131",
"v  c #323232",
"b  c gray20",
"n  c #343434",
"m  c #353535",
"M  c gray21",
"N  c #373737",
"B  c gray22",
"V  c #393939",
"C  c #3A3A3A",
"Z  c gray23",
"A  c #3C3C3C",
"S  c gray24",
"D  c #3E3E3E",
"F  c #3F3F3F",
"G  c gray25",
"H  c #414141",
"J  c gray26",
"K  c #434343",
"L  c #444444",
"P  c gray27",
"I  c #464646",
"U  c gray28",
"Y  c #484848",
"T  c #494949",
"R  c gray29",
"E  c #4B4B4B",
"W  c #4C4C4C",
"Q  c gray30",
"!  c #4E4E4E",
"~  c gray31",
"^  c #505050",
"/  c #515151",
"(  c gray32",
")  c #535353",
"_  c gray33",
"`  c #555555",
"'  c #565656",
"]  c gray34",
"[  c #585858",
"{  c gray35",
"}  c #5A5A5A",
"|  c #5B5B5B",
" . c gray36",
".. c #5D5D5D",
"X. c gray37",
"o. c #5F5F5F",
"O. c #606060",
"+. c gray38",
"@. c #626262",
"#. c gray39",
"$. c #646464",
"%. c #656565",
"&. c gray40",
"*. c #676767",
"=. c #686868",
"-. c DimGray",
";. c #6A6A6A",
":. c gray42",
">. c #6C6C6C",
",. c #6D6D6D",
"<. c gray43",
"1. c #6F6F6F",
"2. c gray44",
"3. c #717171",
"4. c #727272",
"5. c gray45",
"6. c #747474",
"7. c gray46",
"8. c #767676",
"9. c #777777",
"0. c gray47",
"q. c #797979",
"w. c gray48",
"e. c #7B7B7B",
"r. c #7C7C7C",
"t. c gray49",
"y. c #7E7E7E",
"u. c gray50",
"i. c #808080",
"p. c #818181",
"a. c gray51",
"s. c #838383",
"d. c #848484",
"f. c gray52",
"g. c #868686",
"h. c gray53",
"j. c #888888",
"k. c #898989",
"l. c gray54",
"z. c #8B8B8B",
"x. c gray55",
"c. c #8D8D8D",
"v. c #8E8E8E",
"b. c gray56",
"n. c #909090",
"m. c #929292",
"M. c #939393",
"N. c gray58",
"B. c #959595",
"V. c gray59",
"C. c #979797",
"Z. c #989898",
"A. c gray60",
"S. c #9A9A9A",
"D. c #9B9B9B",
"F. c gray61",
"G. c #9D9D9D",
"H. c gray62",
"J. c #9F9F9F",
"K. c #A0A0A0",
"L. c gray63",
"P. c #A2A2A2",
"I. c gray64",
"U. c #A4A4A4",
"Y. c gray65",
"T. c #A7A7A7",
"R. c #A9A9A9",
"E. c gray67",
"W. c #ACACAC",
"Q. c gray68",
"!. c #AFAFAF",
"~. c #B1B1B1",
"^. c #B2B2B2",
"/. c gray70",
"(. c #B4B4B4",
"). c gray71",
"_. c #B7B7B7",
"`. c gray72",
"'. c #B9B9B9",
"]. c gray73",
"[. c #BBBBBB",
"{. c #BCBCBC",
"}. c gray74",
"|. c gray",
" X c gray75",
".X c #C0C0C0",
"XX c #C1C1C1",
"oX c gray76",
"OX c #C3C3C3",
"+X c gray77",
"@X c #C5C5C5",
"#X c #C6C6C6",
"$X c gray78",
"%X c #C8C8C8",
"&X c gray79",
"*X c #CBCBCB",
"=X c gray80",
"-X c #CDCDCD",
";X c #CECECE",
":X c #D0D0D0",
">X c LightGray",
",X c #D5D5D5",
"<X c gray84",
"1X c #D7D7D7",
"2X c #D8D8D8",
"3X c gray85",
"4X c #DADADA",
"5X c gray86",
"6X c gainsboro",
"7X c #DDDDDD",
"8X c #DFDFDF",
"9X c #E1E1E1",
"0X c gray89",
"qX c #E4E4E4",
"wX c gray90",
"eX c #E6E6E6",
"rX c gray91",
"tX c #E9E9E9",
"yX c #EAEAEA",
"uX c #ECECEC",
"iX c gray93",
"pX c #EFEFEF",
"aX c gray95",
"sX c #F4F4F4",
"dX c #F9F9F9",
"fX c gray98",
"gX c white",
"hX c None",
/* pixels */
"hXhXhXhXhXhXhXhXhXhXhXhXhXhXhXhXhXhXhXhXhXhXhXhXhXhXhXhXhXhXhXhXhXhXhXhXhXhXhXhXhXhXhXhXhXhXhXhXhXhXhXhXhXhXhXhXhXhXhXhXhXhXhXhX",
"hXhXhXhXhXhXhXhXhXhXhXhXhXhXhXhXhXhXhXhXhXhXhXhXhXhXhXhXhXhXhXhXhXhXhXhXhXhXhXhXhXhXhXhXhXhXhXhXhXhXhXhXhXhXhXhXhXhXhXhXhXhXhXhX",
"hXhXhXhXhXhXhXhXhXhXhXhXhXhXhXhXhXhXhXhXhXhXhXhXhXhXhXhXhXhXhXhXhXhXhXhXhXhXhXhXhXhXhXhXhXhXhXhXhXhXhXhXhXhXhXhXhXhXhXhXhXhXhXhX",
"hXhXhXhXhXhXhXhXhXhXhXhXhXhXhXhXhXhXhXhXhXhXhXhXhXhXhXhXhXhXhXhXhXhXhXhXhXhXhXhXhXhXhXhXhXhXhXhXhXhXhXhXhXhXhXhXhXhXhXhXhXhXhXhX",
"hXhXhXhXhXhXhXhXhXhXhXhXhXhXhXhXhXhXhXhXhXhXhXhXhXhXhXhXhXhXhXhXhXhXhXhXhXhXhXhXhXhXhXhXhXhXhXhXhXhXhXhXhXhXhXhXhXhXhXhXhXhXhXhX",
"hXhXhXhXhXhXhXhXhXhXhXhXhXhXhXhXhXhXhXhXhXhXhXhXhXhXhXhXhXhXhXhXhXhXhXhXhXhXhXhXhXhXhXhXhXhXhXhXhXhXhXhXhXhXhXhXhXhXhXhXhXhXhXhX",
"hXhXhXhXhXhXhXhXhXhXhXhXhXhXhXhXhXhXhXhXhXhXhXhXhXhXhXhXhXhXhXhXhXhXhXhXhXhXhXhXhXhXhXhXhXhXhXhXhXhXhXhXhXhXhXhXhXhXhXhXhXhXhXhX",
"hXhXhXhXhXhXhXhXhXhXhXhXhXhXhXhXhXhXhXhXhXhXhXhXhXhXhXhXhXhXy.dXh.hXhXhXhXhXhXhXhXhXhXhXhXhXhXhXhXhXhXhXhXhXhXhXhXhXhXhXhXhXhXhX",
"hXhXhXhXhXhXhXhXhXhXhXhXhXhXhXhXhXhXhXhXhXhXhXhXhXhXhXhXhXhXh.gXk.hXhXhXhXhXhXhXhXhXhXhXhXhXhXhXhXhXhXhXhXhXhXhXhXhXhXhXhXhXhXhX",
"hXhXhXhXhXhXhXhXhXhXhXhXhXhXhXhXhXhXhXhXhXhXhXhXy.&.hXhXhXhXhXX.hXhXhXhXhXa { hXhXhXhXhXhXhXhXhXhXhXhXhXhXhXhXhXhXhXhXhXhXhXhXhX",
"hXhXhXhXhXhXhXhXhXhXhXhXhXhXhXhXhXhXhXhXhXhXC &.C.hX$       O G.=       q .Xy.p.a hXhXhXhXhXhXhXhXhXhXhXhXhXhXhXhXhXhXhXhXhXhXhX",
"hXhXhXhXhXhXhXhXhXhXhXhXhXhXhXhXhXhXhXhXz q wXm.^.X.y.    > 5.4X6.2     / U.hXA iXK u hXhXhXhXhXhXhXhXhXhXhXhXhXhXhXhXhXhXhXhXhX",
"hXhXhXhXhXhXhXhXhXhXhXhXhXhXhXhXhXhXhXU ).*X.X|.+.6.> O ` p.A K A p.` O $ k.<.Z.).|.0.+.hXhXhXhXhXhXhXhXhXhXhXhXhXhXhXhXhXhXhXhX",
"hXhXhXhXhXhXhXhXhXhXhXhXhXhXhXhXhX+.0.).<.@XE K >   C h.` O   E   O ` p.A   q ` v.;Xy.wXA ` hXhXhXhXhXhXhXhXhXhXhXhXhXhXhXhXhXhX",
"hXhXhXhXhXhXhXhXhXhXhXhXhXhXhXK h.k.1X@X'.+.2   a 0.=.2       E       > =.0.h   K &.!.^.9XR.` ! hXhXhXhXhXhXhXhXhXhXhXhXhXhXhXhX",
"hXhXhXhXhXhXhXhXhXhXhXhXhXhXhX|.9   !.U !   q 4Xy.a           E O         a 0.4Xq   9 b |.C.K.h.E hXhXhXhXhXhXhXhXhXhXhXhXhXhXhX",
"hXhXhXhXhXhXhXhXhXhXhXhXhXhXhXU.y.y./ = N G.  h.>             E O           $ k.  C.K O K U.C   = hXhXhXhXhXhXhXhXhXhXhXhXhXhXhX",
"hXhXhXhXhXhXhXhXhXhXhXhXhXhXhX2 6.K   A m.U.X.<.$             E             O <.X.U.C.K   b Z.z hXhXhXhXhXhXhXhXhXhXhXhXhXhXhXhX",
"hXhXhXhXhXhXhXhXhXhXhXhXhXhX      u 0.=.=   C ^.X.            E O         O { ).A   = &.0.a       hXhXhXhXhXhXhXhXhXhXhXhXhXhXhX",
"hXhXhXhXhXhXhXhXhXp.gXk.hX    2 <.6.h         +.&.p.A         E         A y.+.&.        a 6.=.9     hXh.gXk.hXhXhXhXhXhXhXhXhXhX",
"hXhXhXhXhXhXhXhXhXy.dX!.N u / p.C             &.$ > =.0.N q   E O q b 6.=.2 O =.            C p./ u N R.dXp.hXhXhXhXhXhXhXhXhXhX",
"hXhXhXhXhXhXhXhXhXhXhXhXp.yX=.                +.2     a Z.:XO U O ;XG.a     > =.                &.yXk.hXhXhXhXhXhXhXhXhXhXhXhXhX",
"hXhXhXhXhXhXhXhXhXhXhXhX> y.U / >             &.2       b +.  K   X.N       > &.            > / E 0.2   hXhXhXhXhXhXhXhXhXhXhXhX",
"hXhXhXhXhXhXhXhXhXhXhX  = +.  h X.U $         X.=       N U = p.> K C       $ &.        O K X.h   +.>   hXhXhXhXhXhXhXhXhXhXhXhX",
"hXhXhXhXhXhXhXhXhXhXhX  = =.      C +.b     u 6XU       N A v.gXC.C C       K 4Xa     b X.C       =.>     hXhXhXhXhXhXhXhXhXhXhX",
"hXhXhXhXhXhXhXhXhX> > 2 = &.        $ U { a $ +.<.5.a   b K { wX+.A C   u 5.<.+.= u X.E $         =.>   z b hXhXhXhXhXhXhXhXhXhX",
"hXhXhXhXhXhXhXhXv.2 h p.O =.            2 / / O   u 6.+.U U   !   K E X.6.a   O / / 2             &.O / '.^.&.hXhXhXhXhXhXhXhXhX",
"hXhXhXhXhXhXhXhX6.v.Z.=.  &.              $ a ` m.).q C K.0.  C   6.G.A q ^.C.` a $               &.O p.h = C.hXhXhXhXhXhXhXhXhX",
"hXhXhXhXhXhXhXhXh C.Z.a $ &.            <.1X    wXgXy.  h m.5.h.6.m.z   0.gXyX    :X6.            &.O ! +./ ` hXhXhXhXhXhXhXhXhX",
"hXhXhXhXhXhXhXhX0.6XR.E $ =.        9 =.5.X.y.K K <.E / ! A u yXa C / / E <.K A y.+.6.<.9         &.= N v.wXy.hXhXhXhXhXhXhXhXhX",
"hXhXhXhXhXhXhXhXq !.v.  +.4Xb   O { y.C     > &.5.9   q |.6X2 K > 4X.Xu   9 5.&.>     N y.X.O   b 4XX.z *X).A hXhXhXhXhXhXhXhXhX",
"hXhXhXhXhXhXhXhX0.;XZ.! 2 N &.C.m.U             9 5.m.h.C C X.G.X.C C p.C.6.q             K v.m.&.C = U m.y./ hXhXhXhXhXhXhXhXhX",
"hXhXhXhXhXhXhXhX! 0.v.U q X.<.6.0.X.>           N 0.<.5.` +.` h.{ +.` 6.5.0.C           > { y.6.<.X.a E G.;Xy.hXhXhXhXhXhXhXhXhX",
"hXhXhXhXhXhXhXhXC ^.;Xb / ;Xq     K p./     a 6.+.$   u ).*X$ / O @X'.a   O X.0.h     ! p.U     9 ;XX.  h.).q hXhXhXhXhXhXhXhXhX",
"hXhXhXhXhXhXhXhX0.yXk.N O +.        O { h.h.0.h ` C.X.E K N N aXC N K E X.C.{ a 6.h.h.{ O         +.O U U.6Xy.hXhXhXhXhXhXhXhXhX",
"hXhXhXhXhXhXhXhX/ / &.! O =.            { '.    iXgX5.  C G.<.=.=.K.A   =.gXaXO   ).X.            &.$ u C.C.z hXhXhXhXhXhXhXhXhX",
"hXhXhXhXhXhXhXhXm.> a h.O =.                N { 5.k.q ` K.&.  A   +.K.` q k.5.{ C                 &.O &.Z.m.0.hXhXhXhXhXhXhXhXhX",
"hXhXhXhXhXhXhXhX&.^.).`   =.            a X.K     N y.E N U   +.  K C E y.C     K X.h             &.O y.z > v.hXhXhXhXhXhXhXhXhX",
"hXhXhXhXhXhXhXhXhXb z   > &.        2 { / 2 = k.y.+.=   N A 5.dX0.A C   = +.y.v.> > / ` 9         &.= 2 2 = hXhXhXhXhXhXhXhXhXhX",
"hXhXhXhXhXhXhXhXhXhXhX  = &.    $ E { u     9 *Xb       C A y.gXh.A C       h *Xq     u { E =     &.2     hXhXhXhXhXhXhXhXhXhXhX",
"hXhXhXhXhXhXhXhXhXhXhX  $ +.  C +.N           X.>       N U   =.O K C       = +.          b +.A   X.=   hXhXhXhXhXhXhXhXhXhXhXhX",
"hXhXhXhXhXhXhXhXhXhXhXhXq C.! K O             &.2       C 6.  K   5.K       > =.            O A ! m.u   hXhXhXhXhXhXhXhXhXhXhXhX",
"hXhXhXhXhXhXhXhXhXhXK a k.6X<.=               &.2     C G.@XO U O .XK.C     > &.              $ <.4Xv.u K hXhXhXhXhXhXhXhXhXhXhX",
"hXhXhXhXhXhXhXhXhXv.gX|.q $ A p./ O           +.$ a 0.=.9 $   ! O O 9 &.0.h O &.          O / p.A $ q ).gXC.hXhXhXhXhXhXhXhXhXhX",
"hXhXhXhXhXhXhXhXhX5.yX5.hX    O ` p.A         =.6.6.h         E         a 6.0.<.        A p.{ O     hX<.iX5.hXhXhXhXhXhXhXhXhXhX",
"hXhXhXhXhXhXhXhXhXhXhXhXhXhX      = <.6.u   / ).U             E O           K ).`   q 6.<.=         hXhXhXhXhXhXhXhXhXhXhXhXhXhX",
"hXhXhXhXhXhXhXhXhXhXhXhXhXhXhXq C./   u C.*XE X.$             E             $ +.E @XZ.h   E K.{   hXhXhXhXhXhXhXhXhXhXhXhXhXhXhX",
"hXhXhXhXhXhXhXhXhXhXhXhXhXhX> O 2 '.U 9 h 6.O K.9             E O           2 K.$ 5.h   <.&.h @Xh hXhXhXhXhXhXhXhXhXhXhXhXhXhXhX",
"hXhXhXhXhXhXhXhXhXhXhXhXhXhXN m.G.C.|.! q = 2 .Xh.A           E           A p..Xa   &.=.R.A u ^.z hXhXhXhXhXhXhXhXhXhXhXhXhXhXhX",
"hXhXhXhXhXhXhXhXhXhXhXhXhXhXhXb ! C.9X).).<./   > =.0.z       E O     h 0.=.2     h.p.9X@X*X&.K hXhXhXhXhXhXhXhXhXhXhXhXhXhXhXhX",
"hXhXhXhXhXhXhXhXhXhXhXhXhXhXhXhXhXK z 1Xm.'.U.` z   u 6.<.2   U   2 =.0.u     y.+.;XZ.C.{ E hXhXhXhXhXhXhXhXhXhXhXhXhXhXhXhXhXhX",
"hXhXhXhXhXhXhXhXhXhXhXhXhXhXhXhXhXhXhX` <.).'.K.=.m.>   A y.` ! / p.A   h Z.Z.C.9XC..Xz hXhXhXhXhXhXhXhXhXhXhXhXhXhXhXhXhXhXhXhX",
"hXhXhXhXhXhXhXhXhXhXhXhXhXhXhXhXhXhXhXhXhXb yX/ hXv.=.      +.iX&.O     ! a 6.Z.@Xz hXhXhXhXhXhXhXhXhXhXhXhXhXhXhXhXhXhXhXhXhXhX",
"hXhXhXhXhXhXhXhXhXhXhXhXhXhXhXhXhXhXhXhXhXhXq 0.y.@Xz         y.          9 k.5.hXhXhXhXhXhXhXhXhXhXhXhXhXhXhXhXhXhXhXhXhXhXhXhX",
"hXhXhXhXhXhXhXhXhXhXhXhXhXhXhXhXhXhXhXhXhXhXhXhX` z hXhXhXhX> 6.> hXhXhXhXN X.hXhXhXhXhXhXhXhXhXhXhXhXhXhXhXhXhXhXhXhXhXhXhXhXhX",
"hXhXhXhXhXhXhXhXhXhXhXhXhXhXhXhXhXhXhXhXhXhXhXhXhXhXhXhXhXhXZ.gXK.hXhXhXhXhXhXhXhXhXhXhXhXhXhXhXhXhXhXhXhXhXhXhXhXhXhXhXhXhXhXhX",
"hXhXhXhXhXhXhXhXhXhXhXhXhXhXhXhXhXhXhXhXhXhXhXhXhXhXhXhXhXhX=.wX<.hXhXhXhXhXhXhXhXhXhXhXhXhXhXhXhXhXhXhXhXhXhXhXhXhXhXhXhXhXhXhX",
"hXhXhXhXhXhXhXhXhXhXhXhXhXhXhXhXhXhXhXhXhXhXhXhXhXhXhXhXhXhXhXhXhXhXhXhXhXhXhXhXhXhXhXhXhXhXhXhXhXhXhXhXhXhXhXhXhXhXhXhXhXhXhXhX",
"hXhXhXhXhXhXhXhXhXhXhXhXhXhXhXhXhXhXhXhXhXhXhXhXhXhXhXhXhXhXhXhXhXhXhXhXhXhXhXhXhXhXhXhXhXhXhXhXhXhXhXhXhXhXhXhXhXhXhXhXhXhXhXhX",
"hXhXhXhXhXhXhXhXhXhXhXhXhXhXhXhXhXhXhXhXhXhXhXhXhXhXhXhXhXhXhXhXhXhXhXhXhXhXhXhXhXhXhXhXhXhXhXhXhXhXhXhXhXhXhXhXhXhXhXhXhXhXhXhX",
"hXhXhXhXhXhXhXhXhXhXhXhXhXhXhXhXhXhXhXhXhXhXhXhXhXhXhXhXhXhXhXhXhXhXhXhXhXhXhXhXhXhXhXhXhXhXhXhXhXhXhXhXhXhXhXhXhXhXhXhXhXhXhXhX",
"hXhXhXhXhXhXhXhXhXhXhXhXhXhXhXhXhXhXhXhXhXhXhXhXhXhXhXhXhXhXhXhXhXhXhXhXhXhXhXhXhXhXhXhXhXhXhXhXhXhXhXhXhXhXhXhXhXhXhXhXhXhXhXhX",
"hXhXhXhXhXhXhXhXhXhXhXhXhXhXhXhXhXhXhXhXhXhXhXhXhXhXhXhXhXhXhXhXhXhXhXhXhXhXhXhXhXhXhXhXhXhXhXhXhXhXhXhXhXhXhXhXhXhXhXhXhXhXhXhX",
"hXhXhXhXhXhXhXhXhXhXhXhXhXhXhXhXhXhXhXhXhXhXhXhXhXhXhXhXhXhXhXhXhXhXhXhXhXhXhXhXhXhXhXhXhXhXhXhXhXhXhXhXhXhXhXhXhXhXhXhXhXhXhXhX"
};
